Filename:
Edge Of Darkness DVDRiP XViD AC3 - IMAGiNE
 
http://www.imdb.com/title/tt1226273/

DETAILS:

Video
ID                               : 0
Format                           : MPEG-4 Visual
Format profile                   : Advanced Simple@L5
Format settings, BVOP            : Yes
Format settings, QPel            : No
Format settings, GMC             : No warppoints
Format settings, Matrix          : Default (MPEG)
Muxing mode                      : Packed bitstream
Codec ID                         : XVID
Codec ID/Hint                    : XviD
Duration                         : 2h 2mn
Bit rate                         : 1 997 Kbps
Width                            : 720 pixels
Height                           : 304 pixels
Display aspect ratio             : 2.35
Frame rate                       : 23.976 fps
Resolution                       : 24 bits
Colorimetry                      : 4:2:0
Scan type                        : Progressive
Bits/(Pixel*Frame)               : 0.381
Stream size                      : 1.70 GiB (84%)
Writing library                  : XviD 1.2.1 (UTC 2008-12-04)

Audio
ID                               : 1
Format                           : AC-3
Format/Info                      : Audio Coding 3
Codec ID                         : 2000
Duration                         : 1h 56mn
Bit rate mode                    : Constant
Bit rate                         : 384 Kbps
Channel(s)                       : 6 channels
Channel positions                : Front: L C R, Surround: L R, LFE
Sampling rate                    : 48.0 KHz
Stream size                      : 321 MiB (15%)
Alignment                        : Aligned on interleaves
Interleave, duration             : 44 ms (1.05 video frame)
Interleave, preload duration     : 512 ms



NOTES:

IMAGiNE bringing you another release.....Edge of Darkness
Well we've just ripped the mptdvd release but have made the file on the large side so we could keep a
good bitrate whislt also keeping the original 5.1 audio track.